<svg width="977" height="116" xmlns="http://www.w3.org/2000/svg" xmlns:xlink="http://www.w3.org/1999/xlink"><defs><path id="path-1" d="M.089.143h976.772v231.791H.089z"/></defs><g id="Notebook" stroke="none" stroke-width="1" fill="none" fill-rule="evenodd"><g id="404" transform="translate(0 -684)"><g id="Group-44" transform="translate(0 684)"><g id="Group-19"><mask id="mask-2" fill="#fff"><use xlink:href="#path-1"/></mask><g id="Group-5" mask="url(#mask-2)" stroke="#FFF" stroke-linecap="round" stroke-linejoin="round" stroke-width="1.96"><g transform="rotate(29 -49.936 47.278)"><path d="M5.98 9.194V20.13c0 5.887 4.691 10.704 10.426 10.704h3.44c5.734 0 10.426-4.817 10.426-10.704V9.194H5.98z" id="Stroke-114"/><path d="M36.43 17.594c0 1.85-1.411 3.365-3.134 3.365-1.725 0-3.135-1.514-3.135-3.365v-3.5c0-1.85 1.41-3.365 3.135-3.365 1.723 0 3.134 1.515 3.134 3.366v3.5z" id="Stroke-115"/><path d="M28.591 25.952c4.602 1.098 7.605 2.906 7.605 4.95 0 3.35-8.07 6.067-18.024 6.067C8.22 36.969.15 34.252.15 30.902c0-2.044 3-3.85 7.601-4.95" id="Stroke-116"/><path d="M21.87 2.72v4.328" id="Stroke-117"/><path d="M17.952.122v6.689" id="Stroke-118"/><path d="M14.145 2.522V6.85" id="Stroke-119"/></g></g><g id="Group" mask="url(#mask-2)" stroke="#FFF" stroke-linecap="round" stroke-linejoin="round" stroke-width="1.96"><g transform="translate(108.228 1.148)"><path d="M13.713 5.9c0 3.262-2.632 5.904-5.878 5.904-3.245 0-5.876-2.642-5.876-5.903C1.959 2.64 4.589 0 7.835 0c3.246 0 5.878 2.642 5.878 5.9z" id="Stroke-792"/><path d="M46.275 39.46c-14.819-2.608-16.099-15.163-16.164-15.94l-.787-2.546-9.048-9.67c1.836-1.855 4.473-3.874 6.069-3.467 1.288.33 2.386 2.613 3.007 6.265A2.316 2.316 0 0032.025 16a2.322 2.322 0 001.898-2.677c-.987-5.786-3.15-9.144-6.43-9.985C21.836 1.895 15.952 9.094 15.3 9.921l-.137.173-2.744 5.282.044.653c.14 2-.01 4.605-1.514 5.655-2.08 1.45-6.344.075-7.673-.525A2.319 2.319 0 00.21 22.313a2.323 2.323 0 001.15 3.077c.503.227 3.628 1.585 7.019 1.585 1.776 0 3.624-.373 5.21-1.474 1.743-1.21 2.85-3.058 3.309-5.508l4.629 5.129c-3.961 1.853-7.9 4.547-7.662 8.445.36 5.93 10.668 9.05 13.819 9.865a2.314 2.314 0 002.823-1.664 2.323 2.323 0 00-1.661-2.831c-4.801-1.247-10.249-3.93-10.352-5.653-.005-.082-.036-2.06 7.527-5.036.14-.053.27-.12.395-.199 1.691 5.242 6.364 13.75 19.055 15.985a2.318 2.318 0 002.686-1.884 2.322 2.322 0 00-1.882-2.69z" id="Stroke-793"/><path d="M31.736 7.148c2.436-1.115 7.202.045 8.71.906.762.434 1.343 1.15 2.1 1.579.737.413 1.93.578 2.765.672 3.562.397 8.405.291 11.5-1.566-1.412 3.367-4.93 5.44-8.533 5.918-2.146.284-4.135.304-6.105 1.346-1.366.722-2.408 1.885-3.234 3.123 7.462-.588 13.286 2.02 17.873.959-2.636 2.51-8.596 6.376-18.022 7.148 1.823-.288 6.958 1.5 8.388 2.13 1.196.525 4.748 1.286 5.9.513-4.11 2.437-14.317 6.301-18.872 3.202" id="Stroke-794"/></g></g><g id="Group-16" mask="url(#mask-2)" stroke="#FFF" stroke-linecap="round" stroke-linejoin="round" stroke-width="1.96"><g transform="rotate(36 -57.949 168.536)"><path d="M5.485 15.533v24.788" id="Stroke-69"/><path d="M.392.188v10.23" id="Stroke-70"/><path d="M5.485.188v10.23" id="Stroke-71"/><path d="M10.579.188v10.23" id="Stroke-72"/><path d="M10.579 10.418c0 2.826-2.28 5.115-5.094 5.115-2.814 0-5.093-2.29-5.093-5.115" id="Stroke-73"/></g></g><path d="M219.399-5.747l-.073 40.007-5.076.009 1.211-11.828s-4.187-.148-2.956-4.73c1.23-4.582 1.815-21.896 6.894-23.458z" id="Stroke-79" stroke="#FFF" stroke-width="1.96" stroke-linecap="round" stroke-linejoin="round" mask="url(#mask-2)" transform="rotate(120 215.839 14.261)"/><ellipse id="Oval" stroke="#FFF" stroke-width="1.96" stroke-linecap="round" stroke-linejoin="round" mask="url(#mask-2)" cx="6.554" cy="7.64" rx="6.465" ry="6.492"/><ellipse id="Oval-Copy-3" stroke="#FFF" stroke-width="1.96" stroke-linecap="round" stroke-linejoin="round" mask="url(#mask-2)" cx="48.673" cy="109.743" rx="3.918" ry="3.935"/><ellipse id="Oval-Copy-14" stroke="#FFF" stroke-width="1.96" stroke-linecap="round" stroke-linejoin="round" mask="url(#mask-2)" cx="473.391" cy="108.563" rx="3.918" ry="3.935"/><ellipse id="Oval-Copy-23" stroke="#FFF" stroke-width="1.96" stroke-linecap="round" stroke-linejoin="round" mask="url(#mask-2)" cx="815.437" cy="110.924" rx="3.918" ry="3.935"/><ellipse id="Oval-Copy-26" stroke="#FFF" stroke-width="1.96" stroke-linecap="round" stroke-linejoin="round" mask="url(#mask-2)" cx="933.763" cy="31.051" rx="3.918" ry="3.935"/><ellipse id="Oval-Copy-7" stroke="#FFF" stroke-width="1.96" stroke-linecap="round" stroke-linejoin="round" mask="url(#mask-2)" cx="200.694" cy="38.134" rx="3.918" ry="3.935"/><ellipse id="Oval-Copy-6" stroke="#FFF" stroke-width="1.96" stroke-linecap="round" stroke-linejoin="round" mask="url(#mask-2)" cx="124.683" cy="59.381" rx="1.959" ry="1.967"/><ellipse id="Oval-Copy-24" stroke="#FFF" stroke-width="1.96" stroke-linecap="round" stroke-linejoin="round" mask="url(#mask-2)" cx="834.636" cy="57.413" rx="1.959" ry="1.967"/><ellipse id="Oval-Copy-10" stroke="#FFF" stroke-width="1.96" stroke-linecap="round" stroke-linejoin="round" mask="url(#mask-2)" cx="172.876" cy="105.809" rx="1.959" ry="1.967"/><ellipse id="Oval-Copy-19" stroke="#FFF" stroke-width="1.96" stroke-linecap="round" stroke-linejoin="round" mask="url(#mask-2)" cx="606.801" cy="3.706" rx="1.371" ry="1.377"/><ellipse id="Oval-Copy-27" stroke="#FFF" stroke-width="1.96" stroke-linecap="round" stroke-linejoin="round" mask="url(#mask-2)" cx="900.263" cy="107.186" rx="1.371" ry="1.377"/><ellipse id="Oval-Copy-31" stroke="#FFF" stroke-width="1.96" stroke-linecap="round" stroke-linejoin="round" mask="url(#mask-2)" cx="543.328" cy="45.019" rx="1.371" ry="1.377"/><ellipse id="Oval-Copy-30" stroke="#FFF" stroke-width="1.96" stroke-linecap="round" stroke-linejoin="round" mask="url(#mask-2)" cx="650.683" cy="112.301" rx="1.371" ry="1.377"/><ellipse id="Oval-Copy-16" stroke="#FFF" stroke-width="1.96" stroke-linecap="round" stroke-linejoin="round" mask="url(#mask-2)" cx="518.057" cy="78.267" rx="1.959" ry="1.967"/><ellipse id="Oval-Copy-29" stroke="#FFF" stroke-width="1.96" stroke-linecap="round" stroke-linejoin="round" mask="url(#mask-2)" cx="182.671" cy="22.002" rx="1.959" ry="1.967"/><ellipse id="Oval-Copy-12" stroke="#FFF" stroke-width="1.96" stroke-linecap="round" stroke-linejoin="round" mask="url(#mask-2)" cx="318.04" cy="34.396" rx="3.722" ry="3.738"/><ellipse id="Oval-Copy-5" stroke="#FFF" stroke-width="1.96" stroke-linecap="round" stroke-linejoin="round" mask="url(#mask-2)" cx="68.459" cy="63.905" rx="6.465" ry="6.492"/><g id="Group-4-Copy" mask="url(#mask-2)"><g transform="rotate(-12 401.684 -602.193)"><path id="Shape" stroke="#FFF" stroke-width="1.96" stroke-linecap="round" stroke-linejoin="round" d="M79.145 0v22.034H0V0z"/><g id="Group-42" stroke="none" stroke-width="1" fill-rule="evenodd" transform="translate(5.889 6.397)" fill="#FFF"><path d="M5.194 2.494a1.432 1.432 0 00-.664-.464c-.28-.1-.543-.15-.792-.15a2.03 2.03 0 00-.451.053 1.692 1.692 0 00-.439.163.965.965 0 00-.335.293.754.754 0 00-.129.444c0 .279.104.492.31.64.206.148.466.274.78.379.313.104.65.209 1.011.313a4.15 4.15 0 011.012.444c.313.191.573.448.78.77.206.322.309.753.309 1.293 0 .514-.095.961-.284 1.345-.189.383-.444.7-.767.953a3.24 3.24 0 01-1.12.56 4.86 4.86 0 01-1.348.184 4.824 4.824 0 01-1.65-.274A4.129 4.129 0 010 8.552l1.43-1.593c.207.278.467.494.78.646a2.2 2.2 0 00.973.228c.164 0 .33-.019.496-.059a1.56 1.56 0 00.452-.176.968.968 0 00.322-.3.757.757 0 00.122-.43.787.787 0 00-.315-.66 2.92 2.92 0 00-.793-.411 25.184 25.184 0 00-1.03-.34 4.563 4.563 0 01-1.032-.456 2.49 2.49 0 01-.793-.758c-.21-.313-.315-.726-.315-1.24 0-.496.096-.932.29-1.305.193-.375.45-.688.773-.94a3.35 3.35 0 011.115-.57C2.895.064 3.33 0 3.776 0c.516 0 1.014.074 1.495.222.481.148.915.396 1.302.744l-1.38 1.528z" id="Fill-33"/><path d="M10.005 4.169h1.355c.182 0 .358-.017.527-.051.17-.034.322-.091.457-.172a.927.927 0 00.325-.332c.083-.14.124-.316.124-.528 0-.23-.054-.414-.163-.555a1.086 1.086 0 00-.417-.324 1.823 1.823 0 00-.566-.147 5.97 5.97 0 00-.6-.032h-1.042v2.14zM7.972.347H11.4c.478 0 .93.042 1.355.127.426.085.797.231 1.114.44.317.208.57.488.756.84.186.353.28.797.28 1.332 0 .527-.087.968-.26 1.324a2.18 2.18 0 01-.717.854 2.931 2.931 0 01-1.082.453c-.417.09-.868.134-1.355.134h-1.485v3.516H7.972V.347z" id="Fill-34"/><path id="Fill-35" d="M16.29.347h6.015V2.18H18.24v1.682h3.839v1.835H18.24v1.834h4.289v1.835h-6.24z"/><path d="M29.756 2.637a1.995 1.995 0 00-.737-.561 2.445 2.445 0 00-1.01-.196 2.54 2.54 0 00-1.063.222 2.558 2.558 0 00-.848.62 2.88 2.88 0 00-.56.947 3.402 3.402 0 00-.203 1.188c0 .435.067.834.203 1.195.134.36.319.674.554.94.234.265.51.472.828.62.317.148.658.221 1.023.221a2.29 2.29 0 001.108-.26 2.21 2.21 0 00.796-.732l1.695 1.267a3.532 3.532 0 01-1.486 1.214c-.6.261-1.218.392-1.852.392a5.695 5.695 0 01-1.995-.34 4.563 4.563 0 01-1.578-.973 4.413 4.413 0 01-1.037-1.533c-.247-.601-.371-1.271-.371-2.011 0-.74.124-1.41.371-2.01a4.427 4.427 0 011.037-1.535A4.58 4.58 0 0126.21.34 5.686 5.686 0 0128.204 0c.26 0 .533.024.815.072.282.048.56.124.834.228.275.105.537.244.79.418.251.175.477.388.677.64l-1.564 1.28z" id="Fill-36"/><path id="Fill-37" d="M34.86 2.105h-2.625V.347h7.279v1.758h-2.625v7.262H34.86z"/><path d="M41.918 4.857c0 .435.065.834.197 1.195.131.361.32.674.565.94.245.266.54.472.884.62.342.148.725.222 1.149.222a2.88 2.88 0 001.15-.222 2.57 2.57 0 00.882-.62c.246-.266.434-.579.565-.94a3.46 3.46 0 00.198-1.195c0-.426-.066-.823-.198-1.188a2.74 2.74 0 00-.565-.947 2.585 2.585 0 00-.883-.62 2.877 2.877 0 00-1.15-.222 2.87 2.87 0 00-1.148.222 2.58 2.58 0 00-.884.62 2.745 2.745 0 00-.565.947 3.481 3.481 0 00-.197 1.188m-2.058 0c0-.74.12-1.41.362-2.011.242-.6.579-1.112 1.01-1.534A4.446 4.446 0 0142.77.339 5.408 5.408 0 0144.713 0c.702 0 1.35.113 1.943.34a4.43 4.43 0 011.538.972c.431.422.768.934 1.01 1.534.24.6.362 1.271.362 2.01 0 .741-.121 1.41-.363 2.012a4.42 4.42 0 01-1.01 1.534 4.423 4.423 0 01-1.537.972 5.413 5.413 0 01-1.943.34c-.703 0-1.35-.113-1.943-.34a4.423 4.423 0 01-1.538-.972 4.42 4.42 0 01-1.01-1.534c-.241-.601-.362-1.27-.362-2.011" id="Fill-38"/><path d="M52.95 4.08h1.18c.18 0 .37-.007.57-.02.2-.012.382-.05.545-.114a.943.943 0 00.404-.3c.107-.135.16-.326.16-.573 0-.23-.048-.412-.142-.548a.942.942 0 00-.358-.312 1.6 1.6 0 00-.5-.146 4.098 4.098 0 00-.55-.039H52.95V4.08zM50.953.347h3.511c.462 0 .9.044 1.313.133.415.09.778.238 1.09.447.312.207.56.488.743.84.184.353.276.793.276 1.319 0 .637-.167 1.179-.5 1.624-.333.446-.82.728-1.46.847l2.306 3.81h-2.397L53.938 5.76h-.987v3.606h-1.999V.347z" id="Fill-39"/><path id="Fill-40" d="M61.235 5.52L57.885.347h2.443l1.889 3.376L64.22.347h2.33L63.2 5.52v3.847h-1.965z"/><path d="M64.47 8.152c0-.167.03-.325.092-.475a1.19 1.19 0 01.258-.39 1.236 1.236 0 01.864-.35 1.248 1.248 0 01.863.351 1.208 1.208 0 01.35.864c0 .167-.032.326-.093.476-.062.15-.148.28-.257.39a1.233 1.233 0 01-.864.35 1.229 1.229 0 01-.863-.35c-.11-.11-.196-.24-.258-.39a1.24 1.24 0 01-.092-.476" id="Fill-41"/></g></g></g><g id="Group-4-Copy-3" mask="url(#mask-2)"><g transform="rotate(75 310.938 460.075)"><path id="Shape" stroke="#FFF" stroke-width="1.96" stroke-linecap="round" stroke-linejoin="round" d="M79.145 0v22.034H0V0z"/><g id="Group-42" stroke="none" stroke-width="1" fill-rule="evenodd" transform="translate(5.889 6.397)" fill="#FFF"><path d="M5.194 2.494a1.432 1.432 0 00-.664-.464c-.28-.1-.543-.15-.792-.15a2.03 2.03 0 00-.451.053 1.692 1.692 0 00-.439.163.965.965 0 00-.335.293.754.754 0 00-.129.444c0 .279.104.492.31.64.206.148.466.274.78.379.313.104.65.209 1.011.313a4.15 4.15 0 011.012.444c.313.191.573.448.78.77.206.322.309.753.309 1.293 0 .514-.095.961-.284 1.345-.189.383-.444.7-.767.953a3.24 3.24 0 01-1.12.56 4.86 4.86 0 01-1.348.184 4.824 4.824 0 01-1.65-.274A4.129 4.129 0 010 8.552l1.43-1.593c.207.278.467.494.78.646a2.2 2.2 0 00.973.228c.164 0 .33-.019.496-.059a1.56 1.56 0 00.452-.176.968.968 0 00.322-.3.757.757 0 00.122-.43.787.787 0 00-.315-.66 2.92 2.92 0 00-.793-.411 25.184 25.184 0 00-1.03-.34 4.563 4.563 0 01-1.032-.456 2.49 2.49 0 01-.793-.758c-.21-.313-.315-.726-.315-1.24 0-.496.096-.932.29-1.305.193-.375.45-.688.773-.94a3.35 3.35 0 011.115-.57C2.895.064 3.33 0 3.776 0c.516 0 1.014.074 1.495.222.481.148.915.396 1.302.744l-1.38 1.528z" id="Fill-33"/><path d="M10.005 4.169h1.355c.182 0 .358-.017.527-.051.17-.034.322-.091.457-.172a.927.927 0 00.325-.332c.083-.14.124-.316.124-.528 0-.23-.054-.414-.163-.555a1.086 1.086 0 00-.417-.324 1.823 1.823 0 00-.566-.147 5.97 5.97 0 00-.6-.032h-1.042v2.14zM7.972.347H11.4c.478 0 .93.042 1.355.127.426.085.797.231 1.114.44.317.208.57.488.756.84.186.353.28.797.28 1.332 0 .527-.087.968-.26 1.324a2.18 2.18 0 01-.717.854 2.931 2.931 0 01-1.082.453c-.417.09-.868.134-1.355.134h-1.485v3.516H7.972V.347z" id="Fill-34"/><path id="Fill-35" d="M16.29.347h6.015V2.18H18.24v1.682h3.839v1.835H18.24v1.834h4.289v1.835h-6.24z"/><path d="M29.756 2.637a1.995 1.995 0 00-.737-.561 2.445 2.445 0 00-1.01-.196 2.54 2.54 0 00-1.063.222 2.558 2.558 0 00-.848.62 2.88 2.88 0 00-.56.947 3.402 3.402 0 00-.203 1.188c0 .435.067.834.203 1.195.134.36.319.674.554.94.234.265.51.472.828.62.317.148.658.221 1.023.221a2.29 2.29 0 001.108-.26 2.21 2.21 0 00.796-.732l1.695 1.267a3.532 3.532 0 01-1.486 1.214c-.6.261-1.218.392-1.852.392a5.695 5.695 0 01-1.995-.34 4.563 4.563 0 01-1.578-.973 4.413 4.413 0 01-1.037-1.533c-.247-.601-.371-1.271-.371-2.011 0-.74.124-1.41.371-2.01a4.427 4.427 0 011.037-1.535A4.58 4.58 0 0126.21.34 5.686 5.686 0 0128.204 0c.26 0 .533.024.815.072.282.048.56.124.834.228.275.105.537.244.79.418.251.175.477.388.677.64l-1.564 1.28z" id="Fill-36"/><path id="Fill-37" d="M34.86 2.105h-2.625V.347h7.279v1.758h-2.625v7.262H34.86z"/><path d="M41.918 4.857c0 .435.065.834.197 1.195.131.361.32.674.565.94.245.266.54.472.884.62.342.148.725.222 1.149.222a2.88 2.88 0 001.15-.222 2.57 2.57 0 00.882-.62c.246-.266.434-.579.565-.94a3.46 3.46 0 00.198-1.195c0-.426-.066-.823-.198-1.188a2.74 2.74 0 00-.565-.947 2.585 2.585 0 00-.883-.62 2.877 2.877 0 00-1.15-.222 2.87 2.87 0 00-1.148.222 2.58 2.58 0 00-.884.62 2.745 2.745 0 00-.565.947 3.481 3.481 0 00-.197 1.188m-2.058 0c0-.74.12-1.41.362-2.011.242-.6.579-1.112 1.01-1.534A4.446 4.446 0 0142.77.339 5.408 5.408 0 0144.713 0c.702 0 1.35.113 1.943.34a4.43 4.43 0 011.538.972c.431.422.768.934 1.01 1.534.24.6.362 1.271.362 2.01 0 .741-.121 1.41-.363 2.012a4.42 4.42 0 01-1.01 1.534 4.423 4.423 0 01-1.537.972 5.413 5.413 0 01-1.943.34c-.703 0-1.35-.113-1.943-.34a4.423 4.423 0 01-1.538-.972 4.42 4.42 0 01-1.01-1.534c-.241-.601-.362-1.27-.362-2.011" id="Fill-38"/><path d="M52.95 4.08h1.18c.18 0 .37-.007.57-.02.2-.012.382-.05.545-.114a.943.943 0 00.404-.3c.107-.135.16-.326.16-.573 0-.23-.048-.412-.142-.548a.942.942 0 00-.358-.312 1.6 1.6 0 00-.5-.146 4.098 4.098 0 00-.55-.039H52.95V4.08zM50.953.347h3.511c.462 0 .9.044 1.313.133.415.09.778.238 1.09.447.312.207.56.488.743.84.184.353.276.793.276 1.319 0 .637-.167 1.179-.5 1.624-.333.446-.82.728-1.46.847l2.306 3.81h-2.397L53.938 5.76h-.987v3.606h-1.999V.347z" id="Fill-39"/><path id="Fill-40" d="M61.235 5.52L57.885.347h2.443l1.889 3.376L64.22.347h2.33L63.2 5.52v3.847h-1.965z"/><path d="M64.47 8.152c0-.167.03-.325.092-.475a1.19 1.19 0 01.258-.39 1.236 1.236 0 01.864-.35 1.248 1.248 0 01.863.351 1.208 1.208 0 01.35.864c0 .167-.032.326-.093.476-.062.15-.148.28-.257.39a1.233 1.233 0 01-.864.35 1.229 1.229 0 01-.863-.35c-.11-.11-.196-.24-.258-.39a1.24 1.24 0 01-.092-.476" id="Fill-41"/></g></g></g><path id="Stroke-740-Copy-7" stroke="#FFF" stroke-width="1.96" stroke-linecap="round" stroke-linejoin="round" mask="url(#mask-2)" transform="rotate(-31 814.784 31.419)" d="M814.77 36.545l-5.642 3.57 1.648-6.474-5.112-4.262 6.649-.452 2.483-6.204 2.461 6.195 6.647.427-5.128 4.281 1.624 6.468z"/><path id="Stroke-740-Copy-6" stroke="#FFF" stroke-width="1.96" stroke-linecap="round" stroke-linejoin="round" mask="url(#mask-2)" transform="rotate(35 720.214 112.394)" d="M720.226 116.913l-4.964 3.128 1.432-5.702-4.523-3.775 5.862-.376 2.17-5.46 2.19 5.469 5.864.4-4.508 3.756 1.454 5.708z"/><path id="Stroke-740-Copy-9" stroke="#FFF" stroke-width="1.96" stroke-linecap="round" stroke-linejoin="round" mask="url(#mask-2)" transform="rotate(105 920.635 114.252)" d="M920.63 117.375l-3.405 2.17.992-3.94-3.089-2.598 4.014-.272 1.497-3.775 1.49 3.772 4.013.264-3.095 2.604.984 3.938z"/><path d="M86.919 29.025l-3.415 2.141a.392.392 0 01-.588-.43l.996-3.878h0l-3.089-2.553a.392.392 0 01.224-.694l4.021-.271h0l1.505-3.725a.392.392 0 01.728 0l1.49 3.718h0l4.015.256a.392.392 0 01.225.693l-3.098 2.565h0l.983 3.88a.392.392 0 01-.587.429l-3.41-2.131h0z" id="Stroke-740-Copy" stroke="#FFF" stroke-width="1.96" stroke-linecap="round" stroke-linejoin="round" mask="url(#mask-2)" transform="rotate(-31 86.927 25.298)"/><path id="Stroke-740-Copy-3" stroke="#FFF" stroke-width="1.96" stroke-linecap="round" stroke-linejoin="round" mask="url(#mask-2)" transform="rotate(-31 272.986 103.905)" d="M272.976 107.73l-4.247 2.664 1.24-4.83-3.847-3.181 5.004-.338 1.87-4.629 1.851 4.622 5.003.32-3.86 3.194 1.223 4.826z"/><g id="Group-4" mask="url(#mask-2)" stroke="#FFF" stroke-linecap="round" stroke-linejoin="round" stroke-width="1.96"><path d="M47.401 32.7H2.561A2.457 2.457 0 01.1 30.247V2.497A2.457 2.457 0 012.56.043H47.4a2.456 2.456 0 012.46 2.454v27.75c0 1.354-1.1 2.453-2.46 2.453z" transform="rotate(61 -8.97 184.65)" id="Stroke-149"/></g><g id="Group-6" mask="url(#mask-2)" stroke="#FFF" stroke-linecap="round" stroke-linejoin="round" stroke-width="1.96"><g transform="rotate(102 25.51 97.209)"><path d="M15.116 0c8.35 0 15.116 5.05 15.116 11.282 0 3.44-2.066 6.515-5.32 8.584.978 2.317 2.762 4.807 6.04 6.492 0 0-6.502.304-11.856-4.2-1.272.259-2.6.408-3.98.408C6.766 22.566 0 17.514 0 11.282 0 5.049 6.766 0 15.116 0z" id="Stroke-1179"/><path d="M5.877 11.41c0 1.087.876 1.968 1.958 1.968 1.085 0 1.96-.881 1.96-1.968a1.962 1.962 0 00-1.96-1.967 1.962 1.962 0 00-1.958 1.967" id="Fill-1180"/><path d="M13.321 11.41c0 1.087.877 1.968 1.958 1.968 1.085 0 1.96-.881 1.96-1.968a1.962 1.962 0 00-1.96-1.967 1.962 1.962 0 00-1.958 1.967" id="Fill-1181"/><path d="M21.158 11.41c0 1.087.875 1.968 1.959 1.968a1.962 1.962 0 001.959-1.968 1.962 1.962 0 00-1.96-1.967 1.962 1.962 0 00-1.958 1.967" id="Fill-1182"/></g></g><g id="Group-7" mask="url(#mask-2)" stroke="#FFF" stroke-linecap="round" stroke-linejoin="round" stroke-width="1.96"><g transform="rotate(37 57.561 398.205)"><path d="M1.727 37.53a1.634 1.634 0 01-1.632-1.625V1.777C.095.882.829.152 1.727.152h27.688c.897 0 1.632.73 1.632 1.625v34.128c0 .894-.735 1.626-1.632 1.626H1.727z" id="Stroke-1183"/><path d="M16.697 31.989c0 .76-.614 1.377-1.371 1.377a1.375 1.375 0 01-1.371-1.377c0-.76.614-1.377 1.371-1.377s1.371.616 1.371 1.377" id="Fill-1184"/><path d="M17.448 4.483h-4.31" id="Stroke-1185"/></g></g><path d="M302.002 2.753c1.257 0 2.472.18 3.646.54a8.406 8.406 0 013.175 1.808l-3.364 3.713c-.398-.508-.938-.883-1.618-1.127-.682-.243-1.326-.365-1.934-.365a5.05 5.05 0 00-1.1.127 4.195 4.195 0 00-1.07.396 2.35 2.35 0 00-.816.714c-.21.297-.315.657-.315 1.08 0 .677.252 1.195.755 1.554.502.36 1.136.666 1.9.92.766.254 1.589.508 2.47.762.88.253 1.702.614 2.467 1.079a5.883 5.883 0 011.903 1.871c.502.783.753 1.83.753 3.142 0 1.249-.23 2.337-.692 3.269a6.626 6.626 0 01-1.87 2.316 7.915 7.915 0 01-2.734 1.363 11.894 11.894 0 01-3.286.445c-1.446 0-2.787-.222-4.023-.666-1.237-.445-2.39-1.163-3.459-2.157l3.49-3.872a5.104 5.104 0 001.902 1.57 5.376 5.376 0 002.373.555 5.22 5.22 0 001.21-.143 3.872 3.872 0 001.1-.428c.325-.19.587-.432.786-.729.2-.297.3-.645.3-1.047 0-.676-.257-1.211-.77-1.603-.514-.39-1.159-.724-1.934-.999a61.59 61.59 0 00-2.515-.825 11.15 11.15 0 01-2.515-1.11 6.066 6.066 0 01-1.933-1.841c-.514-.761-.77-1.765-.77-3.014 0-1.206.235-2.264.707-3.173.47-.91 1.1-1.671 1.886-2.285a8.182 8.182 0 012.72-1.38 11.059 11.059 0 013.175-.46zm12.958 18.073a2.568 2.568 0 012.579 2.558 2.568 2.568 0 01-2.58 2.557 2.568 2.568 0 01-2.578-2.557 2.568 2.568 0 012.579-2.558z" id="Combined-Shape-Copy" stroke="#FFF" stroke-width="1.96" stroke-linecap="round" stroke-linejoin="round" mask="url(#mask-2)" transform="rotate(95 305.164 14.556)"/><path d="M580.712.166c2.576 0 5.066.367 7.471 1.098 2.404.732 4.572 1.958 6.503 3.677l-6.89 7.55c-.816-1.033-1.922-1.796-3.316-2.291-1.397-.494-2.717-.743-3.961-.743-.732 0-1.481.088-2.255.26a8.636 8.636 0 00-2.19.805 4.805 4.805 0 00-1.675 1.451c-.428.604-.645 1.335-.645 2.194 0 1.377.517 2.432 1.548 3.161 1.029.733 2.327 1.355 3.894 1.872 1.568.516 3.254 1.033 5.059 1.548a20.795 20.795 0 015.054 2.194c1.567.947 2.865 2.215 3.898 3.805 1.03 1.593 1.544 3.722 1.544 6.388 0 2.54-.472 4.753-1.417 6.647-.945 1.892-2.22 3.46-3.832 4.71-1.61 1.247-3.477 2.17-5.601 2.77-2.128.605-4.371.907-6.732.907-2.963 0-5.712-.451-8.244-1.355-2.534-.904-4.895-2.366-7.086-4.387l7.15-7.873a10.44 10.44 0 003.897 3.195c1.568.753 3.187 1.127 4.861 1.127.816 0 1.644-.095 2.48-.292a7.969 7.969 0 002.255-.87 4.815 4.815 0 001.61-1.481c.408-.604.613-1.313.613-2.13 0-1.375-.527-2.462-1.578-3.26-1.053-.792-2.373-1.47-3.96-2.03a126.866 126.866 0 00-5.154-1.677 22.933 22.933 0 01-5.152-2.259 12.389 12.389 0 01-3.961-3.742c-1.053-1.548-1.578-3.59-1.578-6.128 0-2.452.483-4.604 1.45-6.452a13.985 13.985 0 013.864-4.646c1.61-1.246 3.466-2.182 5.57-2.807a22.817 22.817 0 016.506-.936zm26.307 37.098c2.922 0 5.29 2.29 5.29 5.115s-2.368 5.115-5.29 5.115c-2.92 0-5.289-2.29-5.289-5.115s2.368-5.115 5.29-5.115z" id="Combined-Shape-Copy-2" stroke="#FFF" stroke-width="1.96" stroke-linecap="round" stroke-linejoin="round" mask="url(#mask-2)" transform="rotate(-25 587.074 24.167)"/><path id="Stroke-553-Copy-2" stroke="#FFF" stroke-width="1.96" stroke-linecap="round" stroke-linejoin="round" mask="url(#mask-2)" transform="rotate(-26 966.66 48.98)" d="M976.499 40.319l-13.637 11.756-5.653-7.001-2.904 2.71 8.183 9.856 16.528-14.247z"/><path id="Stroke-554" stroke="#FFF" stroke-width="1.96" stroke-linecap="round" stroke-linejoin="round" mask="url(#mask-2)" transform="rotate(-23 389.002 49)" d="M401.758 39.372l-3.156-3.166-9.595 9.623-9.566-9.595-3.167 3.176 9.567 9.594-9.596 9.624 3.157 3.165 9.595-9.624 9.567 9.594 3.165-3.175-9.566-9.593z"/><path id="Shape" stroke="#FFF" stroke-width="1.96" stroke-linecap="round" stroke-linejoin="round" mask="url(#mask-2)" transform="rotate(-17 313.54 109.55)" d="M310.524 114.422l-4.815 6.624-1.173-24.667 18.01 16.825-8.173-.592 3.836 8.299-3.848 1.81z"/><path id="Shape-Copy" stroke="#FFF" stroke-width="1.96" stroke-linecap="round" stroke-linejoin="round" mask="url(#mask-2)" transform="rotate(96 792.697 8.417)" d="M790.333 12.184l-3.78 5.119-.936-19.072 14.159 13.019-6.421-.462 3.019 6.418-3.023 1.397z"/><g id="Group" mask="url(#mask-2)" stroke="#FFF" stroke-linecap="round" stroke-linejoin="round" stroke-width="1.96"><g transform="rotate(-46 138.253 -274.704)"><path d="M25.467 12.624C25.467 5.652 19.767 0 12.733 0 5.701 0 0 5.652 0 12.624c0 5.34 3.511 7.577 6.37 11.74.73 1.063 1.707 5.146 1.707 5.146h9.313s.977-4.083 1.707-5.146c2.86-4.163 6.37-6.4 6.37-11.74z" id="Stroke-710"/><path d="M8.16 32.956h9.404" id="Stroke-712"/><path d="M15.997 32.956c0 1.521-1.316 2.754-2.939 2.754-1.622 0-2.939-1.233-2.939-2.754" id="Stroke-713"/></g></g><g id="Group-2-Copy-4" mask="url(#mask-2)" stroke-linecap="round" stroke-linejoin="round"><g stroke="#FFF" stroke-width="1.96" transform="rotate(49 485.255 1056.807)" id="Group"><path d="M12.342 21.404c2.468-.84 4.114-1.679 4.937-2.518 1.234-1.259-2.469-1.259-2.469-7.554 0-4.197 1.646-6.296 4.937-6.296" id="Path-4" transform="matrix(-1 0 0 1 32.089 0)"/><path d="M4.937 21.404c2.468-.84 4.114-1.679 4.937-2.518 1.234-1.259-2.469-1.259-2.469-7.554 0-4.197 1.646-6.296 4.937-6.296" id="Path-4"/><ellipse id="Oval" cx="12.342" cy="12.591" rx="12.342" ry="12.591"/></g></g><g id="Group-2" mask="url(#mask-2)" stroke="#FFF" stroke-linecap="round" stroke-linejoin="round" stroke-width="1.96"><g transform="rotate(-55 201.994 -247.4)"><path d="M22.333 7.87c0 4.345-3.507 7.868-7.835 7.868-4.329 0-7.837-3.523-7.837-7.869C6.66 3.524 10.169 0 14.498 0c4.328 0 7.835 3.524 7.835 7.87z" id="Stroke-150"/><path d="M0 28.027v5.024h14.105L8.257 19.28C3.669 19.562 0 23.383 0 28.027z" id="Stroke-151"/><path d="M28.994 28.027v5.024H14.889l5.849-13.771c4.587.282 8.256 4.103 8.256 8.747z" id="Stroke-152"/></g></g><g id="Group-22" mask="url(#mask-2)" stroke="#FFF" stroke-linecap="round" stroke-linejoin="round" stroke-width="1.96"><g transform="rotate(-32 351.975 -535.066)"><path d="M26.023 5.032h-2.137V3.62c0-1.99-1.593-3.62-3.542-3.62H3.543C1.594 0 0 1.629 0 3.62v8.106c0 1.99 1.594 3.619 3.543 3.619h16.801c1.949 0 3.542-1.628 3.542-3.619v-1.413h2.137c.556 0 1.012-.466 1.012-1.035V6.067c0-.569-.456-1.035-1.012-1.035z" id="Stroke-124"/><path id="Stroke-125" d="M10.307 12.252h4.701V2.809h-4.701z"/><path d="M5.861 2.754H4.326c-.871 0-1.583.6-1.583 1.331v6.781c0 .732.712 1.331 1.583 1.331h3.118V2.754H5.861z" id="Stroke-126"/></g></g><g id="Group-2" mask="url(#mask-2)" stroke="#FFF" stroke-linecap="round" stroke-linejoin="round" stroke-width="1.96"><path d="M3.674.732C1.715-.567.114.314.114 2.69v13.378c0 2.376 1.601 3.257 3.56 1.957l9.468-6.284c1.958-1.3 1.958-3.425 0-4.725L3.674.732z" transform="rotate(52 174.443 360.438)" id="Stroke-86"/></g><g id="Group-8" mask="url(#mask-2)" stroke="#FFF" stroke-linecap="round" stroke-linejoin="round" stroke-width="1.96"><g transform="rotate(-43 257.135 -396.313)"><path d="M11.398 5.21H2.029c-1.016 0-1.924.746-2.02 1.762a1.952 1.952 0 001.938 2.145h.047l1.163 4.517c.142.554.64.94 1.21.94h4.611a1.25 1.25 0 001.21-.94l1.163-4.517h.013c.913 0 1.739-.618 1.934-1.514a1.955 1.955 0 00-1.9-2.393z" id="Stroke-689"/><path d="M6.866 14.55c-.198 1.235.462 2.512 1.475 3.243 1.013.732 2.319.967 3.562.866 1.19-.098 2.406-.523 3.193-1.424 1.337-1.531 1.057-3.842 1.551-5.817" id="Stroke-690"/><path d="M16.69 6.82c-.198 1.231.466 2.504 1.483 3.233 1.018.729 2.33.965 3.578.864 1.195-.096 2.416-.519 3.205-1.416 1.341-1.524 1.059-3.825 1.553-5.791.2-.797.612-1.631 1.38-1.93" id="Stroke-690-Copy" transform="scale(-1 1) rotate(80 0 -20.184)"/><path d="M4.24.582V5.21" id="Stroke-691"/><path d="M9.28.582V5.21" id="Stroke-692"/></g></g><g id="Group-23" mask="url(#mask-2)" stroke="#FFF" stroke-linecap="round" stroke-linejoin="round" stroke-width="1.96"><g transform="rotate(78 203.34 246.177)"><path d="M22.615 18.317C20.18 20.76 3.119 33.442.385 30.697c-2.733-2.747 9.895-19.88 12.328-22.324 2.434-2.444 6.623-2.2 9.357.547 2.734 2.746 2.98 6.953.545 9.397z" id="Stroke-1043"/><path d="M24.236 0s.273 5.81-1.903 8.656c0 0 4.541-3.365 8.62-1.861" id="Stroke-1044"/><path d="M27.426 3.541L24.292 6.69" id="Stroke-1045"/><path d="M17.631 14.951l3.527 3.935" id="Stroke-1046"/><path d="M9.012 24.001l2.35 2.36" id="Stroke-1047"/><path d="M8.62 14.558l3.134 3.541" id="Stroke-1048"/></g></g><g id="Group-23-Copy" mask="url(#mask-2)" stroke="#FFF" stroke-linecap="round" stroke-linejoin="round" stroke-width="1.96"><g transform="rotate(17 -293.01 69.224)"><path d="M18.389 14.778C16.426 16.748 2.666 26.976.46 24.76c-2.203-2.213 7.981-16.03 9.943-18 1.963-1.971 5.341-1.774 7.546.44 2.205 2.215 2.403 5.608.44 7.579z" id="Stroke-1043"/><path d="M19.643.107s.223 4.753-1.558 7.082c0 0 3.716-2.753 7.053-1.522" id="Stroke-1044"/><path d="M22.24 3.156l-2.35 2.36" id="Stroke-1045"/><path d="M14.47 12.307l2.742 3.147" id="Stroke-1046"/><path d="M7.292 19.326l1.959 1.968" id="Stroke-1047"/><path d="M6.988 11.87l2.351 2.755" id="Stroke-1048"/></g></g><g id="Group-8" mask="url(#mask-2)" stroke="#FFF" stroke-linecap="round" stroke-linejoin="round" stroke-width="1.96"><g transform="rotate(79 161.141 284.988)"><path d="M22.678 7.476c4.92 2.376 8.275 7.111 8.275 12.564 0 7.838-6.93 14.191-15.477 14.191C6.928 34.231 0 27.878 0 20.041c0-4.784 2.58-9.014 6.535-11.585" id="Stroke-389"/><path d="M14.163 7.051s3.545-2.91 9.153.53c0 0-2.15.157-3.262 2.15 0 0 2.244.672 4.63 4.287 0 0-4.954-1.058-6.541 0 0 0 .552 3.016-2.593 6.048 0 0-3.645-1.43-3.66-4.313 0 0-3.1 1.531-5.621.824 0 0 .36-3.192 2.762-5.3 0 0-1.989-.81-2.753-3.312 0 0 4.624-2.854 7.885-.914z" id="Stroke-390"/><path d="M16.848 0s-3.934 3.858-2.38 10.23" id="Stroke-391"/></g></g><g id="Group-25" mask="url(#mask-2)" stroke="#FFF" stroke-linecap="round" stroke-linejoin="round" stroke-width="1.96"><g transform="rotate(26 -13.197 1001.812)"><rect id="Rectangle" x=".134" y=".009" width="16.848" height="17.312" rx=".784"/><path id="Path-3-Copy" d="M4.164 9.51l2.939 3.578 6.464-7.87"/></g></g><g id="share-android" mask="url(#mask-2)" stroke="#FFF" stroke-linecap="round" stroke-linejoin="round" stroke-width="1.96"><g transform="rotate(-22 336.266 -1044.544)"><path d="M18.807 9.443L6.269 4.722" id="Path-2" transform="matrix(1 0 0 -1 0 14.165)"/><path d="M18.807 11.804L6.269 16.525" id="Path-2" transform="matrix(1 0 0 -1 0 28.33)"/><ellipse id="Oval" cx="3.134" cy="10.82" rx="3.134" ry="2.951"/><ellipse id="Oval" cx="21.941" cy="2.951" rx="3.134" ry="2.951"/><ellipse id="Oval" cx="21.941" cy="18.296" rx="3.134" ry="2.951"/></g></g><g id="Group-2" mask="url(#mask-2)" stroke-linecap="round" stroke-linejoin="round"><g stroke="#FFF" stroke-width="1.96" transform="translate(436.561 73.152)" id="Group"><path d="M12.45 0c.339 0 .639.216.745.537l.884 2.663a8.515 8.515 0 011.488.864l2.738-.562a.784.784 0 01.838.378l1.875 3.26a.784.784 0 01-.092.91l-1.857 2.103a8.707 8.707 0 010 1.726l1.857 2.104c.223.252.26.618.092.91l-1.875 3.261a.784.784 0 01-.838.377l-2.738-.562a8.515 8.515 0 01-1.488.865l-.884 2.663a.784.784 0 01-.744.537H8.707a.784.784 0 01-.744-.537l-.885-2.663a8.515 8.515 0 01-1.488-.865l-2.738.562a.784.784 0 01-.838-.377L.14 14.894a.784.784 0 01.092-.91l1.857-2.105a8.707 8.707 0 010-1.726L.232 8.051a.784.784 0 01-.092-.91L2.014 3.88a.784.784 0 01.838-.378l2.738.562A8.515 8.515 0 017.078 3.2L7.963.537A.784.784 0 018.707 0h3.744z" id="Combined-Shape"/><ellipse id="Oval" cx="10.579" cy="11.017" rx="2.438" ry="2.448"/></g></g><g id="Group-2-Copy-2" mask="url(#mask-2)" stroke-linecap="round" stroke-linejoin="round"><g stroke="#FFF" stroke-width="1.96" transform="translate(37.31 2.329)" id="Group"><path d="M12.45 0c.339 0 .639.216.745.537l.884 2.663a8.515 8.515 0 011.488.864l2.738-.562a.784.784 0 01.838.378l1.875 3.26a.784.784 0 01-.092.91l-1.857 2.103a8.707 8.707 0 010 1.726l1.857 2.104c.223.252.26.618.092.91l-1.875 3.261a.784.784 0 01-.838.377l-2.738-.562a8.515 8.515 0 01-1.488.865l-.884 2.663a.784.784 0 01-.744.537H8.707a.784.784 0 01-.744-.537l-.885-2.663a8.515 8.515 0 01-1.488-.865l-2.738.562a.784.784 0 01-.838-.377L.14 14.894a.784.784 0 01.092-.91l1.857-2.105a8.707 8.707 0 010-1.726L.232 8.051a.784.784 0 01-.092-.91L2.014 3.88a.784.784 0 01.838-.378l2.738.562A8.515 8.515 0 017.078 3.2L7.963.537A.784.784 0 018.707 0h3.744z" id="Combined-Shape"/><ellipse id="Oval" cx="10.579" cy="11.017" rx="2.438" ry="2.448"/></g></g><g id="Group-2-Copy-3" mask="url(#mask-2)" stroke-linecap="round" stroke-linejoin="round"><g stroke="#FFF" stroke-width="1.96" transform="translate(790.362 55.052)" id="Group"><path d="M12.45 0c.339 0 .639.216.745.537l.884 2.663a8.515 8.515 0 011.488.864l2.738-.562a.784.784 0 01.838.378l1.875 3.26a.784.784 0 01-.092.91l-1.857 2.103a8.707 8.707 0 010 1.726l1.857 2.104c.223.252.26.618.092.91l-1.875 3.261a.784.784 0 01-.838.377l-2.738-.562a8.515 8.515 0 01-1.488.865l-.884 2.663a.784.784 0 01-.744.537H8.707a.784.784 0 01-.744-.537l-.885-2.663a8.515 8.515 0 01-1.488-.865l-2.738.562a.784.784 0 01-.838-.377L.14 14.894a.784.784 0 01.092-.91l1.857-2.105a8.707 8.707 0 010-1.726L.232 8.051a.784.784 0 01-.092-.91L2.014 3.88a.784.784 0 01.838-.378l2.738.562A8.515 8.515 0 017.078 3.2L7.963.537A.784.784 0 018.707 0h3.744z" id="Combined-Shape"/><ellipse id="Oval" cx="10.579" cy="11.017" rx="2.438" ry="2.448"/></g></g><path d="M435.89 27.223l-1.799-1.61c-6.387-5.696-10.604-9.453-10.61-14.056-.006-3.751 2.987-6.694 6.802-6.688a7.494 7.494 0 015.578 2.553 7.447 7.447 0 015.57-2.537c3.815.006 6.817 2.957 6.822 6.708.007 4.603-4.199 8.348-10.57 14.038l-1.793 1.592z" id="Shape" stroke="#FFF" stroke-width="1.96" stroke-linecap="round" stroke-linejoin="round" mask="url(#mask-2)" transform="rotate(68 435.867 16.046)"/><g id="Group-Copy-3" mask="url(#mask-2)" stroke="#FFF" stroke-linecap="round" stroke-linejoin="round" stroke-width="1.96"><path d="M9.478 4.835H.075M5.044.186v9.443" transform="rotate(30 -24.652 200.817)" id="Path-2"/></g><g id="Group" mask="url(#mask-2)" stroke="#FFF" stroke-linecap="round" stroke-linejoin="round" stroke-width="1.96"><g transform="rotate(36 246.893 739.23)"><rect id="Rectangle" x="6.661" y="13.378" width="8.62" height="11.41" rx=".784"/><path d="M0 10.14v12.395c0 1.502.731 2.253 2.194 2.253h17.553c1.463 0 2.194-.751 2.194-2.253V10.14L10.971 0 0 10.14z" id="Path-6"/></g></g><g id="Group-8" mask="url(#mask-2)" stroke="#FFF" stroke-linecap="round" stroke-linejoin="round" stroke-width="1.96"><g transform="rotate(-39 314.625 -631.037)"><path id="Stroke-47" d="M.41 30.78h43.883V.09H.411z"/><path id="Stroke-49" d="M.877.325l21.941 21.64L43.876.978"/><path d="M15.758 15.563L.086 30.514" id="Stroke-50"/><path d="M44.627 31.004L28.995 16.306" id="Stroke-51"/></g></g><g id="Group-9" mask="url(#mask-2)" stroke="#FFF"><g transform="rotate(68 190.06 430.65)"><path d="M29.75 31.979H2.083A2.04 2.04 0 01.05 29.935V2.152A2.04 2.04 0 012.083.11H29.75a2.04 2.04 0 012.035 2.043v27.783a2.04 2.04 0 01-2.035 2.044z" id="Stroke-315" stroke-width="1.96" fill="none" stroke-linecap="round" stroke-linejoin="round"/><path d="M5.265 1.888V5.43" id="Stroke-316" stroke-width="1.96" fill="none" stroke-linecap="round" stroke-linejoin="round"/><path d="M10.721 1.98v3.541" id="Stroke-317" stroke-width="1.96" fill="none" stroke-linecap="round" stroke-linejoin="round"/><path d="M16.177 2.072v3.541" id="Stroke-318" stroke-width="1.96" fill="none" stroke-linecap="round" stroke-linejoin="round"/><path d="M21.27 2.017v3.541" id="Stroke-319" stroke-width="1.96" fill="none" stroke-linecap="round" stroke-linejoin="round"/><path d="M29.75 31.979H2.085A2.04 2.04 0 01.05 29.935V2.152A2.04 2.04 0 012.084.11h27.667a2.04 2.04 0 012.034 2.043v27.783c0 1.13-.91 2.044-2.034 2.044z" id="Stroke-321" stroke-width="1.96" fill="none" stroke-linecap="round" stroke-linejoin="round"/><path d="M5.265 1.888V5.43" id="Stroke-322" stroke-width="1.96" fill="none" stroke-linecap="round" stroke-linejoin="round"/><path d="M10.721 1.98v3.541" id="Stroke-323" stroke-width="1.96" fill="none" stroke-linecap="round" stroke-linejoin="round"/><path d="M16.177 2.072v3.541" id="Stroke-324" stroke-width="1.96" fill="none" stroke-linecap="round" stroke-linejoin="round"/><path d="M21.27 2.017v3.541" id="Stroke-325" stroke-width="1.96" fill="none" stroke-linecap="round" stroke-linejoin="round"/><path d="M6.463 22.514c.506.328 1.681.84 2.917.84 2.29 0 3-1.475 2.98-2.583-.02-1.864-1.683-2.664-3.405-2.664H7.96v-1.352h.994c1.296 0 2.939-.675 2.939-2.254 0-1.065-.669-2.008-2.31-2.008-1.055 0-2.068.471-2.636.88l-.466-1.31c.689-.513 2.027-1.025 3.447-1.025 2.593 0 3.769 1.558 3.769 3.176 0 1.373-.811 2.541-2.434 3.135v.042c1.623.328 2.94 1.557 2.94 3.422 0 2.131-1.642 3.996-4.804 3.996-1.479 0-2.775-.472-3.424-.902l.487-1.393z" id="Fill-327" stroke-width=".784" fill="#FFF" fill-rule="evenodd"/><path d="M18.487 17.987c0 3.463 1.015 5.43 2.58 5.43 1.759 0 2.599-2.151 2.599-5.554 0-3.279-.8-5.43-2.58-5.43-1.504 0-2.6 1.926-2.6 5.554m6.9-.206c0 4.53-1.602 7.03-4.416 7.03-2.483 0-4.164-2.44-4.204-6.845 0-4.467 1.839-6.927 4.419-6.927 2.677 0 4.201 2.5 4.201 6.742" id="Fill-328" stroke-width=".784" fill="#FFF" fill-rule="evenodd"/></g></g><g id="Group" mask="url(#mask-2)" stroke="#FFF" stroke-linecap="round" stroke-linejoin="round" stroke-width="1.96"><g transform="rotate(-96 272.258 -217.047)"><ellipse id="Oval" cx="13.727" cy="14.124" rx="13.713" ry="13.968"/><path id="Path-5" d="M13.98 4.765v9.014l5.093 5.15"/></g></g><g id="Group-27" mask="url(#mask-2)" stroke="#FFF" stroke-linecap="round" stroke-linejoin="round" stroke-width="1.96"><g transform="rotate(47 219.818 664.727)"><path id="Stroke-669" d="M0 30.69h25.467V10.623H0z"/><path d="M12.93 0h0C8.169 0 4.31 3.806 4.31 8.502v2.121h17.24V8.502C21.55 3.806 17.69 0 12.93 0z" id="Stroke-670"/><path d="M15.672 19.058a2.932 2.932 0 00-2.939-2.926 2.932 2.932 0 00-2.938 2.926c0 1.3.86 2.39 2.04 2.77v3.353h1.798V21.83c1.18-.38 2.04-1.47 2.04-2.771z" id="Stroke-671"/></g></g><g id="Group-11" mask="url(#mask-2)" stroke="#FFF" stroke-linecap="round" stroke-linejoin="round" stroke-width="1.96"><g transform="rotate(39 144.774 844.933)"><path d="M20.92 5.002C17.1 1.101 10.618 1.394 5.389 6.732c-5.228 5.339-7.223 13.7-3.401 17.602 3.82 3.901 12.01 1.865 17.24-3.473 5.228-5.339 5.516-11.957 1.694-15.859z" id="Stroke-449"/><path d="M20.766 5.115l-8.228 8.656" id="Stroke-450"/><path d="M5.485 6.689l13.713 14.164" id="Stroke-451"/><path d="M20.766 4.722c.064-.164.252-.237.406-.325.396-.226.652-.652.714-1.097.062-.444-.055-.9-.276-1.294-.258-.459-.669-.931-.519-1.433.088-.296.376-.515.688-.562.312-.048.636.062.879.259.537.434.656 1.2 1.117 1.71.61.674 1.64.745 2.476 1.12" id="Stroke-452"/></g></g><g id="Group-28" mask="url(#mask-2)" stroke="#FFF" stroke-linecap="round" stroke-linejoin="round" stroke-width="1.96"><g transform="rotate(-89 345.946 -257.236)"><path d="M28.294 45.641H3.442A3.448 3.448 0 010 42.19V3.453A3.448 3.448 0 013.442 0h24.852a3.448 3.448 0 013.442 3.453v38.736a3.448 3.448 0 01-3.442 3.452z" id="Stroke-95"/><path id="Stroke-96" d="M4.31 36.592h22.725V4.722H4.31z"/><path d="M12.538 41.117h6.66" id="Stroke-97"/></g></g><g id="Group-29" mask="url(#mask-2)" stroke="#FFF" stroke-linecap="round" stroke-linejoin="round" stroke-width="1.96"><g transform="rotate(-170 323.687 42.162)"><path d="M.163 12.568s7.845 21.875 32.418 3.977c0 0 6.806 5.264 9.114 5.966 0 0-3.345-4.328-3.345-9.476" id="Stroke-1080"/><path d="M17.007 24.048s2.378 2.526 8.228 1.178" id="Stroke-1082"/></g></g><g id="Group-11" mask="url(#mask-2)" stroke="#FFF" stroke-linecap="round" stroke-linejoin="round" stroke-width="1.96"><g transform="translate(627.762 1.542)"><path d="M29.385 15.825c.406.507 2.846 2.705 3.603 4.388a43.478 43.478 0 001.489 3.001c3.606-4.164-2.22-12.59-2.22-12.59" id="Stroke-30"/><path d="M21.128 17.189s3.83.095 5.283.433c1.453.34 1.806-.464 1.806-.464s1.958-3.507 3.198-5.579c1.24-2.072.486-3.323.486-3.323-4.066-5.207-11.527-4.701-11.527-4.701" id="Stroke-31"/><path d="M17.265.503S3.643 6.85 1.29 9.112c-2.35 2.261.65 4.337.65 4.337s2.356.807 6.566 4.233c3.931 3.198 6.594 5.926 6.594 5.926 1.535-.673 6.057-2.539 6.057-2.539L20.428.503c-1.703-1.131-3.163 0-3.163 0z" id="Stroke-32"/><path d="M2.735 13.771C1.21 15.524-.394 22.802.087 24.556c.482 1.753 3.129.262 5.376 0 2.247-.264 3.21 1.665 4.813.789 1.606-.878 2.654-3.635 2.654-3.635" id="Stroke-33"/><path d="M10.187 33.692c-2.037-1.66-2.2-7.948-2.2-7.948-.488-.352-1.547-1.224-3.259-.875-1.71.35-2.769.875-2.769.875.082 4.541 4.154 8.734 6.028 9.695 1.875.96 4.236-.088 2.2-1.747z" id="Stroke-34"/></g></g><g id="Group-12" mask="url(#mask-2)" stroke="#FFF" stroke-linecap="round" stroke-linejoin="round" stroke-width="1.96"><g transform="rotate(12 339.53 3265.81)"><path d="M19.59 22.82L11.644 8.954c-.83-1.449-2.611-1.91-3.98-1.032-1.367.879-1.804 2.764-.973 4.212L18.253 32.31l-7.437-1.67s-3.383.093-3.671 3.189c-.289 3.095 6.248 2.85 6.248 2.85s6.382.683 10.62 4.823c4.238 4.14 11.375-2.314 11.375-2.314s3.573-1.931 5.53-3.317c1.955-1.384 1.977-5.972-.68-10.608l-7.415-12.938c-.829-1.448-2.551-1.946-3.847-1.115-1.295.83-1.672 2.68-.843 4.127l1.796 3.135" id="Stroke-916"/><path d="M19.433 22.034l-2.545-4.523c-.814-1.447-.444-3.294.827-4.125 1.27-.831 2.961-.332 3.775 1.115l2.802 4.979" id="Stroke-917"/><path d="M24.083 19.673l-2.085-3.643c-.846-1.476-.461-3.362.858-4.21 1.32-.847 3.074-.338 3.92 1.139l2.218 3.875" id="Stroke-918"/><path d="M9.242 16.823a7.788 7.788 0 01-1.21.096C3.596 16.919 0 13.13 0 8.459 0 3.786 3.596 0 8.032 0s8.032 3.787 8.032 8.458c0 1.82-.546 3.505-1.474 4.885" id="Stroke-919"/></g></g><g id="danger" mask="url(#mask-2)" stroke="#FFF" stroke-linecap="round" stroke-linejoin="round" stroke-width="1.96"><g transform="rotate(55 305.908 718.03)"><path d="M10.32 7.624l.191 5.9m-.128 3.256h0" id="Path-5"/><circle id="Oval" cx="10.383" cy="16.779" r="1"/><path d="M10.734.762l9.75 19.582a.392.392 0 01-.351.567H.633a.392.392 0 01-.35-.567L10.031.762a.392.392 0 01.702 0z" id="Triangle"/></g></g><g id="Group-33" mask="url(#mask-2)" stroke="#FFF" stroke-linecap="round" stroke-linejoin="round" stroke-width="1.96"><g transform="rotate(-16 413.37 -2593.146)"><path d="M39.572 20.598c0 1.655-1.152 3.01-2.56 3.01H7.655c-1.41 0-2.562-1.355-2.562-3.01V3.01C5.093 1.356 6.245 0 7.655 0h29.357c1.408 0 2.56 1.356 2.56 3.011v17.587z" id="Stroke-138"/><path id="Stroke-139" d="M44.666 44.854H0l6.422-21.246h31.82z"/><path d="M10.579 29.116h1.959" id="Stroke-140"/><path d="M17.631 29.116h1.96" id="Stroke-141"/><path d="M24.684 29.116h1.959" id="Stroke-142"/><path d="M32.128 29.116h1.96" id="Stroke-143"/><path d="M8.62 34.231h2.35" id="Stroke-144"/><path d="M16.848 34.231h2.35" id="Stroke-145"/><path d="M25.076 34.231h2.35" id="Stroke-146"/><path d="M33.304 34.231h2.35" id="Stroke-147"/><path d="M7.444 38.953h2.743" id="Stroke-148"/><path d="M16.456 38.953h2.742" id="Stroke-149"/><path d="M25.467 38.953h2.743" id="Stroke-150"/><path d="M34.479 38.953h2.743" id="Stroke-151"/></g></g><g id="Group-34" mask="url(#mask-2)" stroke="#FFF" stroke-linecap="round" stroke-linejoin="round" stroke-width="1.96"><g transform="rotate(-140 412.733 -78.697)"><path d="M60.831 10.956c-.502-1.507-1.06-3.83-1.67-6.968h0a4.751 4.751 0 00-5.935-3.67s0 0 0 0c-2.607.724-19.12 4.993-49.54 12.808C.353 13.995-.66 16.672.642 21.16c1.304 4.486 2.608 8.9 3.911 13.243 1.014 2.46 3.187 3.256 6.519 2.388 3.332-.869 19.266-5.21 47.802-13.026 1.739-.724 2.898-1.954 3.477-3.69.58-1.737 1.231-2.75 1.956-3.04 3.91-.868 4.925-1.52 3.042-1.954-2.825-.651-5.65-1.52-6.519-4.124z" id="Path-18"/><path d="M8.37 13.726l43.234-.029a1.176 1.176 0 011.177 1.177v.695c0 .649-.526 1.175-1.175 1.175l-43.236.029a1.176 1.176 0 01-1.177-1.177V14.9a1.176 1.176 0 011.176-1.175z" id="Rectangle" transform="rotate(-14 29.987 15.235)"/><path d="M10.773 23.017l27.605-.018a1.176 1.176 0 011.177 1.177v.694c0 .649-.527 1.175-1.176 1.175l-27.605.019a1.176 1.176 0 01-1.177-1.177v-.695a1.176 1.176 0 011.176-1.175z" id="Rectangle-Copy" transform="rotate(-14 24.576 24.531)"/></g></g><path id="Stroke-711" stroke="#FFF" stroke-width="1.96" stroke-linecap="round" stroke-linejoin="round" mask="url(#mask-2)" transform="rotate(114 780.239 133.763)" d="M764.904 123.798l11.673 11.66-.013 8.317 7.287-.01.013-8.317 11.709-11.698z"/><g id="Group-36" mask="url(#mask-2)" stroke="#FFF" stroke-linecap="round" stroke-linejoin="round" stroke-width="1.96"><g transform="rotate(44 350.133 1088.125)"><path d="M18.616 27.087c2.076-5.626 3.325-18.037 3.325-18.037H4.31s1.248 12.41 3.324 18.037C9.712 32.713 5.121 39.1 5.121 39.1l2.621 2.607H18.51l2.62-2.607s-4.592-6.387-2.515-12.013z" id="Stroke-696"/><path d="M21.863 9.899a4.177 4.177 0 002.82-3.947 4.18 4.18 0 00-6.488-3.483 3.803 3.803 0 00-4.677-.57 4.481 4.481 0 00-8.086 1.868 3.053 3.053 0 00-3.653 2.99c0 .738.273 1.405.71 1.933A4.557 4.557 0 000 12.75a4.566 4.566 0 005.572 4.448" id="Stroke-697"/><path d="M14.497 27.346a.98.98 0 01-.979.983.983.983 0 010-1.967c.54 0 .979.44.979.984" id="Fill-698"/><path d="M13.321 22.231c0 .977-.789 1.77-1.762 1.77a1.767 1.767 0 01-1.764-1.77c0-.978.79-1.771 1.764-1.771.973 0 1.762.793 1.762 1.771" id="Fill-699"/><path d="M17.631 16.33a2.159 2.159 0 01-2.154 2.163 2.159 2.159 0 01-2.156-2.163 2.16 2.16 0 012.156-2.165c1.19 0 2.154.968 2.154 2.165" id="Fill-700"/></g></g><g id="Group-38" mask="url(#mask-2)" stroke="#FFF" stroke-linecap="round" stroke-linejoin="round" stroke-width="1.96"><path d="M23.046 28.4c-2.135-2.89-3.153-6.911-2.485-11.117.534-3.352 2.052-6.238 4.123-8.31l-3.801-1.097-2.825-.815-2.851-.822-2.809-.81-3.817-1.1c.714 2.874.544 6.149-.705 9.295-1.567 3.946-4.48 6.834-7.771 8.16l-.105.25c5.429 4.826 5.84 14.108 5.803 17.429-.001.197.234.218.287.026l4.192-15.29a3.487 3.487 0 01-.994-3.481c.501-1.832 2.355-2.899 4.14-2.383 1.786.514 2.826 2.417 2.324 4.247a3.378 3.378 0 01-2.619 2.44l-4.192 15.29c-.053.192.16.3.258.131 1.656-2.855 6.724-10.556 13.81-11.772l.037-.27z" transform="rotate(82 376.729 566.873)" id="Stroke-715"/></g><g id="Group-13" mask="url(#mask-2)" stroke="#FFF" stroke-linecap="round" stroke-linejoin="round" stroke-width="1.96"><g transform="rotate(42 436.84 1110.536)"><path id="Stroke-119" d="M30.953 27.761l-10.58-10.449-10.578 10.45h6.116V40.92h8.925V27.76z"/><path d="M33.717 25.575a8.81 8.81 0 00-1.774-17.436h-6.93a7.439 7.439 0 10-14.842-.699c0 .236.014.469.035.699H8.804C3.942 8.139 0 12.082 0 16.947a8.809 8.809 0 006.951 8.611" id="Stroke-120"/></g></g><path id="Path-3-Copy-3" stroke="#FFF" stroke-width="1.96" stroke-linecap="round" stroke-linejoin="round" mask="url(#mask-2)" transform="rotate(-178 181.054 46.23)" d="M176.94 44.262l4.115 3.935 4.113-3.934"/><path id="Path-3-Copy-2" stroke="#FFF" stroke-width="1.96" stroke-linecap="round" stroke-linejoin="round" mask="url(#mask-2)" transform="rotate(-59 877.48 100.79)" d="M870.995 97.67l6.473 6.263 6.497-6.288"/><path d="M902.418 1.542c7.141 0 12.93 4.844 12.93 10.82s-5.789 10.82-12.93 10.82a15.22 15.22 0 01-3.993-.526l-6.194 3.28.825-6.112c-2.21-1.94-3.567-4.569-3.567-7.462 0-5.976 5.788-10.82 12.93-10.82z" id="Combined-Shape" stroke="#FFF" stroke-width="1.96" stroke-linecap="round" stroke-linejoin="round" mask="url(#mask-2)" transform="rotate(-122 902.418 13.74)"/><g id="Group-39" mask="url(#mask-2)" stroke="#FFF" stroke-linecap="round" stroke-linejoin="round" stroke-width="1.96"><g transform="rotate(55 427.345 896.674)"><path d="M24.684 4.524c0 2.5-2.018 4.526-4.506 4.526-2.487 0-4.506-2.027-4.506-4.526C15.672 2.026 17.691 0 20.178 0c2.488 0 4.506 2.026 4.506 4.524z" id="Stroke-67"/><path d="M20.178 11.017c-5.95 0-10.775 5.637-10.775 12.59h21.55c0-6.953-4.824-12.59-10.775-12.59z" id="Stroke-69"/><path d="M40.42 31.189c-2.208-.835-7.634-2.818-9.294-2.79-2.102.037-11.702 0-11.702 0l-.001.003c-2.772-.014-6.097.169-9.01.387-1.278.095-2.233 1.163-2.132 2.386.1 1.222 1.222 2.141 2.493 2.04 2.761-.205 5.88-.345 8.282-.365 1.58.672 4.102 1.887 4.607 2.987 0 0-.97.732-2.117 1.366-4.895 1.307-8.845 1.097-11.752-.637-4.288-2.559-5.092-7.76-5.11-7.877-.164-1.212-1.316-2.073-2.59-1.916-1.271.153-2.172 1.264-2.012 2.48.04.297 1.034 7.333 7.207 11.05 2.422 1.46 5.25 2.19 8.46 2.19 2.644 0 5.545-.496 8.692-1.488 3.238-.651 11.953-2.156 15.42-1.72.19.024.376.019.559 0v-8.096z" id="Stroke-71"/></g></g><g id="Group-40" mask="url(#mask-2)" stroke="#FFF" stroke-linecap="round" stroke-linejoin="round" stroke-width="1.96"><g transform="translate(934.155 78.267)"><path d="M17.24 22.034c0 2.39-1.929 4.328-4.31 4.328-2.381 0-4.31-1.938-4.31-4.328 0-2.39 1.929-4.328 4.31-4.328 2.381 0 4.31 1.938 4.31 4.328z" id="Stroke-417"/><path d="M22.725 29.117a2.748 2.748 0 01-2.743 2.753 2.748 2.748 0 01-2.743-2.753 2.749 2.749 0 012.743-2.755 2.748 2.748 0 012.743 2.755z" id="Stroke-418"/><path d="M16.457 20.066h22.176a7.03 7.03 0 00.548-2.728c0-3.487-2.528-6.364-5.849-6.941.14-.609.228-1.24.228-1.888A8.51 8.51 0 0025.05 0c-2.857 0-5.371 1.42-6.913 3.58-1.024-.917-2.362-1.492-3.846-1.492-2.931 0-5.325 2.187-5.701 5.014-.136-.006-.264-.039-.402-.039A8.187 8.187 0 000 15.251c0 1.806.605 3.46 1.596 4.815h7.382" id="Stroke-419"/><path d="M12.93 10.23h13.32" id="Stroke-420"/><path d="M8.62 14.165h21.94" id="Stroke-421"/></g></g><g id="Group-14" mask="url(#mask-2)"><g transform="rotate(40 -15.028 326.198)"><path d="M42.9 19.685c0 10.378-8.414 18.79-18.792 18.79-10.38 0-18.795-8.412-18.795-18.79C5.313 9.308 13.728.897 24.108.897c10.378 0 18.791 8.41 18.791 18.788z" id="Stroke-403" stroke="#FFF" stroke-width="2.052" fill="none" stroke-linecap="round" stroke-linejoin="round"/><path d="M5.885 13.798A6.939 6.939 0 016.94 0a6.94 6.94 0 016.365 4.17" id="Stroke-404" stroke="#FFF" stroke-width="2.052" fill="none" stroke-linecap="round" stroke-linejoin="round"/><path d="M42.327 13.798A6.939 6.939 0 0041.273 0a6.94 6.94 0 00-6.365 4.17" id="Stroke-405" stroke="#FFF" stroke-width="2.052" fill="none" stroke-linecap="round" stroke-linejoin="round"/><path d="M17.426 20.972a1.813 1.813 0 11-3.625.002 1.813 1.813 0 013.625-.002" id="Fill-406" stroke="none" fill="#FFF" fill-rule="evenodd"/></g></g></g></g></g></g></svg>